<svg width="15" height="20" viewBox="0 0 15 20" fill="none" xmlns="http://www.w3.org/2000/svg">
<g clip-path="url(#clip0_103_11)">
<path d="M4.6634 10.879L12.441 19.629C12.6609 19.8764 12.9211 20 13.2222 20C13.5233 20 13.7836 19.8764 14.0036 19.629C14.2235 19.3815 14.3334 19.0887 14.3334 18.7501L14.3334 1.25023C14.3334 0.911729 14.2235 0.618628 14.0036 0.371328C13.7834 0.123928 13.5231 2.81334e-05 13.2222 2.81334e-05C12.9213 2.81334e-05 12.6609 0.123928 12.441 0.371328L4.6634 9.12133C4.4437 9.36853 4.3334 9.66153 4.3334 10.0002C4.3334 10.3387 4.4436 10.6315 4.6634 10.879Z" fill="#444444"/>
</g>
<path d="M0.663399 10.8789L8.441 19.6289C8.66094 19.8764 8.92107 20 9.22219 20C9.5233 20 9.78362 19.8764 10.0036 19.6289C10.2235 19.3815 10.3334 19.0887 10.3334 18.7501L10.3334 1.2502C10.3334 0.911698 10.2235 0.618597 10.0036 0.371297C9.78338 0.123897 9.52306 -2.38419e-06 9.22219 -2.38419e-06C8.92126 -2.38419e-06 8.66094 0.123897 8.441 0.371297L0.663399 9.1213C0.443699 9.3685 0.333399 9.6615 0.333399 10.0002C0.333399 10.3387 0.443599 10.6315 0.663399 10.8789Z" fill="#444444"/>
<defs>
<clipPath id="clip0_103_11">
<rect width="11" height="20" fill="white" transform="translate(15 20) rotate(-180)"/>
</clipPath>
</defs>
</svg>
