<svg width="11" height="20" viewBox="0 0 11 20" fill="none" xmlns="http://www.w3.org/2000/svg">
<g clip-path="url(#clip0_102_2)">
<path d="M0.663399 10.879L8.441 19.629C8.66094 19.8764 8.92107 20 9.22219 20C9.5233 20 9.78362 19.8764 10.0036 19.629C10.2235 19.3815 10.3334 19.0887 10.3334 18.7501L10.3334 1.25023C10.3334 0.911729 10.2235 0.618628 10.0036 0.371328C9.78338 0.123928 9.52306 2.81334e-05 9.22219 2.81334e-05C8.92126 2.81334e-05 8.66094 0.123928 8.441 0.371328L0.663399 9.12133C0.443699 9.36853 0.333399 9.66153 0.333399 10.0002C0.333399 10.3387 0.443599 10.6315 0.663399 10.879Z" fill="#444444"/>
</g>
<defs>
<clipPath id="clip0_102_2">
<rect width="11" height="20" fill="white" transform="translate(11 20) rotate(-180)"/>
</clipPath>
</defs>
</svg>
