<?xml version="1.0" encoding="utf-8"?><svg xmlns="http://www.w3.org/2000/svg" xmlns:xlink="http://www.w3.org/1999/xlink"><symbol viewBox="0 0 11 20" id="ar_next" xmlns="http://www.w3.org/2000/svg"><path d="M10.337 9.121L2.559.371C2.339.124 2.079 0 1.778 0c-.301 0-.562.124-.782.371-.22.247-.33.54-.33.879v17.5c0 .338.11.631.33.879.22.247.48.371.782.371.3 0 .561-.124.781-.371l7.778-8.75c.22-.247.33-.54.33-.88 0-.338-.11-.63-.33-.878z"/></symbol><symbol viewBox="0 0 11 20" id="ar_prev" xmlns="http://www.w3.org/2000/svg"><path d="M.663 9.121L8.441.371C8.66.124 8.92 0 9.222 0c.301 0 .562.124.781.371.22.247.33.54.33.879v17.5c0 .338-.11.631-.33.879-.22.247-.48.371-.78.371-.302 0-.562-.124-.782-.371l-7.778-8.75a1.28 1.28 0 01-.33-.88c0-.338.11-.63.33-.878z"/></symbol><symbol viewBox="0 0 22 24" id="basket" xmlns="http://www.w3.org/2000/svg"><g clip-path="url(#ca)"><path d="M10.363 18.443a2.046 2.046 0 00-2.045 2.042 2.046 2.046 0 004.09 0 2.046 2.046 0 00-2.045-2.042zm6.134 0a2.046 2.046 0 00-2.045 2.042 2.046 2.046 0 004.089 0 2.046 2.046 0 00-2.044-2.042zm3.978-8.199L7.413 6.891a.614.614 0 00-.75.73L8.67 16.4h-.786L5.482 5.895a.613.613 0 00-.474-.464l-4.27-.882A.614.614 0 00.489 5.75l3.885.802L6.797 17.15a.613.613 0 00.598.477h12.07a.615.615 0 00.607-.53l.858-6.175a.613.613 0 00-.455-.678zm-8.14 3.91a.613.613 0 01-1.227 0v-2.696a.613.613 0 011.227 0v2.696zm2.625 0a.613.613 0 01-1.227 0v-1.88a.613.613 0 011.227 0v1.88zm2.625 0a.613.613 0 01-1.227 0v-1.226a.613.613 0 011.227 0v1.226z"/></g><path fill-rule="evenodd" clip-rule="evenodd" d="M16.268 4.568a2.996 2.996 0 00-1.693-.523c-.627 0-1.21.193-1.693.523-.28-.843-.492-1.752-.492-2.383C12.39.98 13.37 0 14.575 0s2.185.98 2.185 2.185c0 .631-.212 1.54-.492 2.383zm-4.722 2.274l.024.006v-.011l-.024.005zm4.972 1.217c-1.333-.33-2.766-.681-4.129-1.013a2.185 2.185 0 114.129 1.013zm4.436 1.103c-.866-.217-2.155-.538-3.618-.9a2.995 2.995 0 00.243-1.425c.87.18 1.762.45 2.308.765.596.344.969.928 1.067 1.56zM9.869 6.439c-.36-.086-.706-.167-1.03-.243a2.19 2.19 0 01-.376-2.667 2.188 2.188 0 013.147-.7c.098.738.338 1.599.61 2.353a3.01 3.01 0 00-.449.774c-.628.113-1.305.278-1.902.483zm10.124.075a3.43 3.43 0 01-.217.114c-.696-.295-1.587-.526-2.397-.672a3.01 3.01 0 00-.449-.774c.262-.727.494-1.553.599-2.273.095-.067.189-.128.278-.18a2.188 2.188 0 012.986.8 2.188 2.188 0 01-.8 2.985z"/><defs><clipPath id="ca"><path transform="translate(0 3.064)" d="M0 0h20.936v20.936H0z"/></clipPath></defs></symbol><symbol viewBox="0 0 23 31" id="bookmarks" xmlns="http://www.w3.org/2000/svg"><path d="M21.79.5H.724a.624.624 0 00-.624.624v28.752a.624.624 0 001.057.45l10.1-9.726 10.1 9.725a.621.621 0 00.677.125.624.624 0 00.38-.574V1.124A.624.624 0 0021.789.5zm-.625 27.909l-9.476-9.125a.62.62 0 00-.865 0l-9.476 9.125V1.748h19.817v26.66z"/></symbol><symbol viewBox="0 0 31 31" id="cart" xmlns="http://www.w3.org/2000/svg"><path d="M9.771 24.5c-1.65 0-3 1.35-3 3s1.35 3 3 3 3-1.35 3-3-1.35-3-3-3zm-9-24v3h3l5.4 11.4-2.1 3.6c-.15.45-.3 1.05-.3 1.5 0 1.65 1.35 3 3 3h18v-3h-17.4c-.15 0-.3-.15-.3-.3v-.15l1.35-2.55h11.1c1.2 0 2.1-.6 2.55-1.5l5.4-9.75c.3-.3.3-.45.3-.75 0-.9-.6-1.5-1.5-1.5h-22.2l-1.35-3H.771zm24 24c-1.65 0-3 1.35-3 3s1.35 3 3 3 3-1.35 3-3-1.35-3-3-3z"/></symbol><symbol viewBox="0 0 20 20" id="cartplus" xmlns="http://www.w3.org/2000/svg"><path fill-rule="evenodd" clip-rule="evenodd" d="M5.997 15.998a2.01 2.01 0 00-1.994 2.007c0 1.092.903 1.995 1.994 1.995a2.01 2.01 0 002.008-1.995 2.013 2.013 0 00-2.008-2.007zM10.34 3.526h1.744v2.246h2.246v1.744h-2.246v2.246H10.34V7.516H8.08V5.772h2.259V3.526zM0 0v1.995h1.995l3.601 7.604-1.393 2.396c-.1.3-.2.703-.2 1.004a2 2 0 001.994 1.995h12.008v-1.995H6.399c-.1 0-.2-.1-.2-.201v-.1l.903-1.694h7.402c.79 0 1.393-.402 1.694-1.004l3.601-6.5C20 3.3 20 3.2 20 3c0-.602-.402-1.004-1.004-1.004H4.203L3.3 0H0zm15.998 15.998a2.003 2.003 0 00-1.995 2.007A2 2 0 0015.997 20a2.01 2.01 0 002.007-1.995 2.013 2.013 0 00-2.007-2.007z"/></symbol><symbol viewBox="0 0 344.96 344.96" id="check" xmlns="http://www.w3.org/2000/svg"><g data-name="Слой 2"><path class="gcls-1" d="M321.85 86.24l-40-23.11-23.1-40H212.5L172.48 0l-40 23.11H86.24l-23.11 40-40 23.1v46.21L0 172.48l23.11 40v46.21l40 23.11 23.11 40h46.21l40 23.1 40-23.11h46.21l23.11-40 40-23.11V212.5l23.11-40-23.11-40V86.24zM156.91 243.07a16.79 16.79 0 01-23.34 0l-50.45-50.44a16.19 16.19 0 010-22.89l13.35-13.35a16.19 16.19 0 0122.89 0l25.87 25.87 80.34-80.35a16.19 16.19 0 0122.89 0l13.35 13.35a16.19 16.19 0 010 22.89z" data-name="Capa 1"/></g></symbol><symbol viewBox="0 0 20 16" id="checked" xmlns="http://www.w3.org/2000/svg"><path d="M19.639 2.116L17.884.361A1.194 1.194 0 0017.007 0c-.345 0-.637.12-.878.361L7.665 8.84 3.87 5.032a1.194 1.194 0 00-.877-.361c-.345 0-.637.12-.878.361L.361 6.787c-.24.24-.361.533-.361.878 0 .343.12.636.361.877l4.671 4.67 1.755 1.756c.24.24.533.36.878.36.343 0 .636-.12.877-.36l1.755-1.755 9.342-9.342c.24-.24.361-.533.361-.878 0-.344-.12-.636-.361-.877z"/></symbol><symbol viewBox="0 0 31 31" id="compare" xmlns="http://www.w3.org/2000/svg"><path d="M30.618 18.814l-5.054-8.425L30.1 9.13a.879.879 0 10-.47-1.694l-5.64 1.567-7.368 2.046v-9.67a.879.879 0 00-1.758 0v10.159l-7.819 2.171-5.658 1.572a.879.879 0 00.47 1.694l3.527-.98L.87 23.521a.88.88 0 00-.126.452A6.535 6.535 0 007.272 30.5a6.534 6.534 0 006.527-6.527.879.879 0 00-.125-.452l-5.055-8.425 13.711-3.809-4.515 7.527a.88.88 0 00-.125.452c0 3.6 2.928 6.527 6.527 6.527a6.484 6.484 0 004.615-1.912 6.484 6.484 0 001.912-4.615.877.877 0 00-.125-.452zM7.271 28.742a4.777 4.777 0 01-4.688-3.89h9.375a4.777 4.777 0 01-4.687 3.89zm4.096-5.648H3.175l4.096-6.828 4.096 6.828zM24.216 11.56l4.096 6.827H20.12l4.096-6.827zm0 12.475a4.777 4.777 0 01-4.687-3.89h9.375a4.777 4.777 0 01-4.688 3.89z"/></symbol><symbol viewBox="0 0 40 40" id="fastview" xmlns="http://www.w3.org/2000/svg"><path d="M37.82 20.612l.376-.612-.376-.613c-.062-.102-1.571-2.537-4.502-4.978-3.9-3.245-8.492-4.96-13.283-4.96-4.79 0-9.394 1.714-13.315 4.958-2.948 2.44-4.474 4.873-4.537 4.975L1.8 20l.383.618c.063.102 1.59 2.536 4.537 4.975 3.921 3.244 8.525 4.959 13.315 4.959 4.791 0 9.384-1.716 13.283-4.962 2.93-2.44 4.44-4.875 4.502-4.978zm-6.064 3.229c-3.507 2.898-7.45 4.367-11.72 4.367-4.273 0-8.229-1.47-11.76-4.37A22.114 22.114 0 014.606 20a22.115 22.115 0 013.67-3.838c3.531-2.9 7.487-4.37 11.76-4.37 4.27 0 8.212 1.47 11.72 4.367A21.827 21.827 0 0135.399 20a21.83 21.83 0 01-3.643 3.84z"/><path d="M20 12.958A7.05 7.05 0 0012.958 20 7.05 7.05 0 0020 27.042 7.05 7.05 0 0027.042 20 7.05 7.05 0 0020 12.958zm0 11.74A4.703 4.703 0 0115.302 20 4.703 4.703 0 0120 15.302 4.703 4.703 0 0124.698 20 4.703 4.703 0 0120 24.698zM2.344 2.344h4.892V0H0v7.148h2.344V2.344zM32.764 0v2.344h4.892v4.804H40V0h-7.236zM2.344 32.852H0V40h7.236v-2.344H2.344v-4.804zm35.312 4.804h-4.892V40H40v-7.148h-2.344v4.804z"/></symbol><symbol viewBox="0 0 24 24" id="fb" xmlns="http://www.w3.org/2000/svg"><path d="M13.397 20.997v-8.196h2.765l.411-3.209h-3.176V7.548c0-.926.258-1.56 1.587-1.56h1.684v-2.86A22.108 22.108 0 0014.201 3c-2.444 0-4.122 1.492-4.122 4.231v2.355H7.332v3.21h2.753v8.201h3.312z"/></symbol><symbol class="licon lreplaced-svg" viewBox="0 0 22 30" id="geo" xmlns="http://www.w3.org/2000/svg"><path d="M10.547 0C4.728 0 0 4.729 0 10.547a10.4 10.4 0 001.582 5.537l8.25 13.5c.14.23.352.37.598.405a.875.875 0 00.896-.422L19.6 15.943a10.403 10.403 0 001.494-5.396C21.094 4.729 16.365 0 10.547 0zm0 15.82a5.266 5.266 0 01-5.274-5.273c0-2.9 2.373-5.274 5.274-5.274 2.9 0 5.273 2.373 5.273 5.274a5.255 5.255 0 01-5.273 5.273z"/></symbol><symbol viewBox="0 0 11 20" id="hero-next" xmlns="http://www.w3.org/2000/svg"><path d="M10.337 9.121L2.559.371C2.339.124 2.079 0 1.778 0c-.301 0-.562.124-.782.371-.22.247-.33.54-.33.879v17.5c0 .338.11.631.33.879.22.247.48.371.782.371.3 0 .561-.124.781-.371l7.778-8.75c.22-.247.33-.54.33-.88 0-.338-.11-.63-.33-.878z"/></symbol><symbol viewBox="0 0 24 24" id="instagram" xmlns="http://www.w3.org/2000/svg"><path d="M11.999 7.377a4.624 4.624 0 100 9.248 4.624 4.624 0 000-9.248zm0 7.627a3.004 3.004 0 110-6.008 3.004 3.004 0 010 6.008zm4.807-6.719a1.078 1.078 0 100-2.156 1.078 1.078 0 000 2.156z"/><path d="M20.533 6.11A4.605 4.605 0 0017.9 3.48a6.607 6.607 0 00-2.186-.42c-.963-.042-1.268-.054-3.71-.054s-2.755 0-3.71.054a6.554 6.554 0 00-2.184.42 4.6 4.6 0 00-2.633 2.63 6.585 6.585 0 00-.419 2.186c-.043.962-.056 1.267-.056 3.71 0 2.442 0 2.753.056 3.71.015.748.156 1.486.419 2.187a4.61 4.61 0 002.634 2.632 6.583 6.583 0 002.185.45c.963.042 1.268.055 3.71.055s2.755 0 3.71-.055a6.616 6.616 0 002.186-.42 4.613 4.613 0 002.633-2.632c.263-.7.404-1.438.419-2.186.043-.962.056-1.267.056-3.71s0-2.753-.056-3.71a6.583 6.583 0 00-.421-2.217zm-1.218 9.533a5.046 5.046 0 01-.311 1.688 2.987 2.987 0 01-1.712 1.71c-.535.2-1.1.305-1.67.312-.95.044-1.218.055-3.654.055-2.438 0-2.687 0-3.655-.055a4.961 4.961 0 01-1.67-.311 2.984 2.984 0 01-1.718-1.711 5.08 5.08 0 01-.311-1.67c-.043-.95-.053-1.217-.053-3.653 0-2.437 0-2.686.053-3.655a5.038 5.038 0 01.311-1.687c.305-.79.93-1.41 1.719-1.712a5.01 5.01 0 011.669-.311c.95-.043 1.218-.055 3.655-.055s2.687 0 3.654.055a4.96 4.96 0 011.67.31 2.99 2.99 0 011.712 1.713 5.06 5.06 0 01.311 1.669c.043.95.054 1.218.054 3.655 0 2.436 0 2.698-.043 3.654h-.011v-.001z"/></symbol><symbol viewBox="0 0 31 31" id="login" xmlns="http://www.w3.org/2000/svg"><path d="M24.284 25.313a1.172 1.172 0 100-2.344 1.172 1.172 0 000 2.344zM7.848 28.156H3.7c-.5 0-.802-.279-.937-.445a1.224 1.224 0 01-.248-1.027C3.73 20.84 8.889 16.57 14.844 16.431a8.003 8.003 0 00.6 0 12.84 12.84 0 014.233.816 1.172 1.172 0 10.824-2.194c-.194-.073-.39-.142-.586-.206a7.962 7.962 0 003.197-6.378C23.112 4.075 19.537.5 15.143.5S7.174 4.075 7.174 8.469a7.962 7.962 0 003.202 6.382 15.227 15.227 0 00-4.91 2.699 15.289 15.289 0 00-5.247 8.656 3.558 3.558 0 00.725 2.983A3.537 3.537 0 003.699 30.5h4.15a1.172 1.172 0 100-2.344zM9.518 8.47a5.631 5.631 0 015.625-5.625 5.631 5.631 0 015.625 5.625 5.632 5.632 0 01-5.351 5.618 15.6 15.6 0 00-.549 0 5.632 5.632 0 01-5.35-5.618z"/><path d="M29.245 20.692a3.158 3.158 0 00-2.88-1.852h-3.663c-1.319 0-2.469.777-2.932 1.98-.061.16-.137.363-.215.598h-7.673c-.317 0-.62.128-.84.355l-2.014 2.074a1.172 1.172 0 00.005 1.638l2.051 2.086c.22.224.522.35.836.35h3.809a1.172 1.172 0 100-2.343H12.41l-.904-.92.87-.896h8.057c.54 0 1.01-.37 1.138-.893a9.69 9.69 0 01.386-1.207c.113-.295.398-.478.747-.478h3.656a.8.8 0 01.745.464c.314.704.69 1.794.693 2.988.003 1.203-.373 2.317-.688 3.04a.8.8 0 01-.736.48h-3.7a.834.834 0 01-.755-.519 7.799 7.799 0 01-.363-1.16 1.172 1.172 0 00-2.28.546c.136.568.292 1.061.476 1.508a3.161 3.161 0 002.92 1.969h3.706c1.25 0 2.381-.74 2.881-1.887.405-.929.887-2.373.883-3.983-.003-1.605-.49-3.027-.896-3.938z"/></symbol><symbol viewBox="0 0 20 31" id="ok" xmlns="http://www.w3.org/2000/svg"><path d="M1.112 16.144C.346 17.65 1.216 18.37 3.2 19.6c1.687 1.042 4.018 1.424 5.516 1.576l-5.901 5.676c-1.718 1.646 1.047 4.288 2.763 2.677l4.647-4.482c1.778 1.712 3.483 3.351 4.646 4.488 1.717 1.617 4.481-1.002 2.782-2.677-.127-.12-6.296-6.038-5.92-5.676 1.517-.152 3.813-.556 5.48-1.576l-.001-.001c1.985-1.236 2.855-1.955 2.1-3.461-.456-.855-1.686-1.57-3.324-.334 0 0-2.211 1.694-5.777 1.694-3.568 0-5.778-1.694-5.778-1.694-1.636-1.243-2.871-.521-3.322.334z"/><path d="M10.21 15.22c4.347 0 7.897-3.398 7.897-7.58 0-4.2-3.55-7.598-7.898-7.598S2.311 3.44 2.311 7.64c0 4.182 3.55 7.58 7.898 7.58zm0-11.329c2.135 0 3.878 1.676 3.878 3.749 0 2.055-1.742 3.731-3.879 3.731-2.136 0-3.878-1.676-3.878-3.731-.002-2.074 1.74-3.749 3.878-3.749z"/></symbol><symbol viewBox="0 0 21 31" id="oneclick" xmlns="http://www.w3.org/2000/svg"><path d="M18.689 14.02h-.04c-.775 0-1.427.71-1.427 1.622v1.264c0 .252-.19.456-.423.456-.233 0-.423-.204-.423-.456v-2.335c0-.912-.614-1.654-1.388-1.654-.778 0-1.392.742-1.392 1.654v2.475c0 .252-.19.456-.423.456-.234 0-.423-.204-.423-.456v-3.154c0-.912-.639-1.632-1.413-1.632h-.043c-.754 0-1.385.683-1.385 1.563v3.552c0 .252-.19.456-.423.456-.234 0-.423-.204-.423-.456v-3.449l-.002-.034.002-.084V5.745c0-.912-.639-1.654-1.412-1.654-.774 0-1.412.742-1.413 1.653l-.008 13.37a.456.456 0 01-.281.43.404.404 0 01-.47-.14L4 17.461a2.21 2.21 0 00-1.59-.907 2.112 2.112 0 00-1.657.64l-.016.017-.29.261L5.578 28.11c.81 1.679 2.342 2.73 3.997 2.73h5.932c2.525 0 4.58-2.395 4.583-5.33l.004-3.658c.003-2.51.004-3.433-.002-6.198-.002-.91-.631-1.633-1.403-1.633z"/><path d="M3.802 5.905c.233 0 .423-.204.423-.456-.005-1.318.644-2.539 1.701-3.2a3.198 3.198 0 013.42 0c1.057.661 1.706 1.882 1.701 3.2 0 .252.19.456.423.456.234 0 .423-.204.423-.456.006-1.645-.804-3.168-2.124-3.992a3.99 3.99 0 00-4.266 0c-1.32.824-2.13 2.347-2.125 3.992 0 .252.19.456.424.456z"/></symbol><symbol class="ricon rreplaced-svg" viewBox="0 0 31 30" id="phone" xmlns="http://www.w3.org/2000/svg"><path d="M29.215 23.142l-6.073-4.05a1.772 1.772 0 00-2.373.386l-1.768 2.274a.756.756 0 01-.97.204l-.336-.185c-1.116-.608-2.503-1.365-5.3-4.162-2.796-2.797-3.554-4.186-4.162-5.299l-.184-.337a.757.757 0 01.2-.972l2.272-1.769c.727-.57.895-1.602.386-2.373L6.857.787A1.763 1.763 0 004.482.252l-2.54 1.525a3.582 3.582 0 00-1.633 2.12C-.606 7.23.082 12.978 8.552 21.45c6.738 6.737 11.753 8.549 15.2 8.549.794.003 1.585-.1 2.35-.307a3.578 3.578 0 002.12-1.633l1.527-2.538a1.763 1.763 0 00-.534-2.378zM17 5.002a8.508 8.508 0 018.5 8.498.5.5 0 101 0A9.509 9.509 0 0017 4.002a.5.5 0 100 1z"/><path d="M17 8.001a5.506 5.506 0 015.5 5.5.5.5 0 001 0A6.507 6.507 0 0017 7a.5.5 0 100 1z"/><path d="M17 11a2.503 2.503 0 012.5 2.5.5.5 0 101 0A3.504 3.504 0 0017 10a.5.5 0 100 1z"/></symbol><symbol viewBox="0 0 19 20" id="search" xmlns="http://www.w3.org/2000/svg"><path d="M18.711 18.217l-4.684-4.95a8.128 8.128 0 001.864-5.192C15.891 3.623 12.327 0 7.946 0S0 3.623 0 8.075c0 4.453 3.565 8.075 7.946 8.075a7.774 7.774 0 004.552-1.461l4.72 4.988a1.02 1.02 0 001.464.03 1.069 1.069 0 00.03-1.49zM7.946 2.107c3.238 0 5.873 2.677 5.873 5.968s-2.635 5.969-5.873 5.969c-3.239 0-5.873-2.678-5.873-5.969 0-3.291 2.634-5.968 5.873-5.968z"/></symbol><symbol viewBox="0 0 24 24" id="settings" xmlns="http://www.w3.org/2000/svg"><path fill-rule="evenodd" clip-rule="evenodd" d="M6 4.516V2.25C6 1.01 4.99 0 3.75 0S1.5 1.01 1.5 2.25v2.266A3.735 3.735 0 000 7.5a3.73 3.73 0 001.5 2.983V21.75C1.5 22.99 2.51 24 3.75 24S6 22.99 6 21.75V10.483A3.73 3.73 0 007.5 7.5 3.735 3.735 0 006 4.516zM3 2.25a.75.75 0 111.5 0v1.575a3.796 3.796 0 00-1.5 0V2.25zm1.5 19.5a.75.75 0 11-1.5 0V11.174a3.684 3.684 0 001.5 0V21.75zM5.899 8.13l-.01.032a2.208 2.208 0 01-.31.639l-.006.005a2.27 2.27 0 01-1.074.805 2.196 2.196 0 01-.749.139c-.265 0-.514-.054-.75-.14a2.222 2.222 0 01-.607-.328 2.27 2.27 0 01-.472-.482 2.234 2.234 0 01-.311-.64l-.01-.03c-.059-.201-.1-.41-.1-.63 0-.221.041-.43.101-.631l.009-.03c.009-.03.017-.059.028-.088a2.16 2.16 0 01.284-.553l.005-.006a2.307 2.307 0 01.467-.476l.005-.004A2.221 2.221 0 014.5 5.388a2.308 2.308 0 01.602.325 2.307 2.307 0 01.477.486 2.198 2.198 0 01.32.67c.06.2.101.41.101.631 0 .22-.041.429-.101.63zM22.5 4.516V2.25C22.5 1.01 21.49 0 20.25 0S18 1.01 18 2.25v2.266A3.733 3.733 0 0016.5 7.5c0 1.223.593 2.298 1.5 2.983V21.75c0 1.24 1.01 2.25 2.25 2.25s2.25-1.01 2.25-2.25V10.483A3.731 3.731 0 0024 7.5a3.737 3.737 0 00-1.5-2.984zm-3-2.266a.75.75 0 111.5 0v1.575a3.808 3.808 0 00-1.5 0V2.25zm1.5 19.5a.75.75 0 11-1.5 0V11.174a3.673 3.673 0 001.5 0V21.75zm1.399-13.62l-.008.026c-.01.03-.018.061-.029.092a2.21 2.21 0 01-.284.553c-.003.004-.008.007-.01.011a2.287 2.287 0 01-.462.47c-.003.004-.006.005-.008.007A2.233 2.233 0 0121 9.61a2.2 2.2 0 01-.749.139c-.265 0-.515-.054-.75-.14a2.211 2.211 0 01-.6-.322l-.007-.006a2.254 2.254 0 01-.463-.47l-.005-.006-.005-.006a2.231 2.231 0 01-.32-.67c-.059-.201-.1-.41-.1-.63 0-.221.041-.43.101-.631l.01-.033a2.242 2.242 0 01.31-.638l.005-.006.005-.006a2.291 2.291 0 01.466-.472v-.001c.002-.001.003-.003.005-.003.18-.135.382-.245.599-.323.234-.083.483-.137.749-.137a2.319 2.319 0 011.357.466c.175.134.33.294.461.47l.005.007a2.273 2.273 0 01.29.56c.01.028.018.057.027.086l.01.03c.059.2.1.41.1.631 0 .22-.041.429-.101.63zM14.25 2.25v11.266a3.738 3.738 0 011.5 2.984 3.731 3.731 0 01-1.5 2.983v2.267c0 1.24-1.01 2.25-2.25 2.25s-2.25-1.01-2.25-2.25v-2.267a3.73 3.73 0 01-1.5-2.983c0-1.223.594-2.299 1.5-2.984V2.25C9.75 1.01 10.76 0 12 0s2.25 1.01 2.25 2.25zM12 1.5a.75.75 0 00-.75.75v10.575a3.792 3.792 0 011.5 0V2.25A.75.75 0 0012 1.5zm0 21a.75.75 0 00.75-.75v-1.576a3.694 3.694 0 01-1.5 0v1.576c0 .415.335.75.75.75zm2.141-5.345l.008-.025c.06-.201.101-.41.101-.63a2.212 2.212 0 00-.11-.661 2.273 2.273 0 00-.312-.64c-.001-.003-.003-.004-.005-.006l-.005-.006a2.325 2.325 0 00-.469-.476A2.319 2.319 0 0012 14.25a2.307 2.307 0 00-1.348.46l-.003.002-.005.004a2.308 2.308 0 00-.462.47l-.005.006-.005.006a2.245 2.245 0 00-.32.67 2.2 2.2 0 00-.102.632 2.209 2.209 0 00.11.66 2.234 2.234 0 00.321.651 2.273 2.273 0 001.069.8c.236.085.485.139.75.139.264 0 .514-.054.75-.139a2.23 2.23 0 00.6-.324l.006-.004c.175-.134.33-.292.461-.47l.005-.006a2.21 2.21 0 00.319-.652z"/></symbol><symbol viewBox="0 0 15 16" id="star" xmlns="http://www.w3.org/2000/svg"><path d="M7.911.827l1.856 4.684 4.75.435c.33.03.464.469.214.7l-3.604 3.328 1.08 4.953c.075.344-.274.614-.558.432l-4.082-2.626-4.083 2.626c-.284.182-.633-.09-.558-.432l1.08-4.953L.4 6.644c-.25-.23-.117-.669.214-.699l4.75-.435L7.222.827a.366.366 0 01.69 0z"/></symbol><symbol viewBox="0 0 16 16" id="telegram" xmlns="http://www.w3.org/2000/svg"><path d="M14.629 3.698l-2.012 9.618c-.152.679-.548.848-1.11.528l-3.066-2.29-1.48 1.442c-.163.166-.3.305-.616.305l.22-3.165 5.683-5.204c.247-.223-.054-.347-.384-.123L4.839 9.29l-3.024-.959c-.658-.208-.67-.667.137-.986L13.78 2.727c.548-.208 1.027.124.849.971z"/></symbol><symbol viewBox="0 0 16 16" id="viber" xmlns="http://www.w3.org/2000/svg"><path d="M8 1.335c-1.071.013-3.374.19-4.662 1.37-.958.948-1.292 2.35-1.331 4.084-.033 1.728-.072 4.973 3.058 5.856v1.346s-.02.538.337.648c.438.14.688-.275 1.105-.72l.778-.879c2.142.178 3.782-.232 3.97-.293.435-.139 2.883-.451 3.283-3.696.41-3.351-.2-5.463-1.301-6.418h-.007c-.332-.306-1.668-1.279-4.652-1.29 0 0-.222-.014-.578-.008zm.037.942a7.02 7.02 0 01.488.011c2.527.007 3.732.767 4.017 1.023.927.794 1.405 2.697 1.055 5.495-.332 2.713-2.317 2.885-2.685 3.002-.156.05-1.6.406-3.42.289 0 0-1.356 1.634-1.78 2.055-.067.074-.146.095-.196.085-.071-.018-.093-.107-.089-.229l.013-2.233c-2.655-.733-2.498-3.5-2.47-4.946.033-1.446.304-2.628 1.113-3.43 1.088-.982 3.043-1.115 3.953-1.122zm.2 1.446a.166.166 0 100 .332 3.136 3.136 0 012.242.883c.606.588.9 1.378.912 2.411 0 .092.074.167.167.167V7.51a.167.167 0 00.168-.165 3.588 3.588 0 00-1.009-2.646c-.66-.645-1.496-.977-2.48-.977zm-2.198.382a.523.523 0 00-.342.067H5.69a2.61 2.61 0 00-.637.523 1.003 1.003 0 00-.256.525.71.71 0 00.026.302l.01.006c.172.504.396.988.67 1.444a8.48 8.48 0 001.29 1.762l.015.022.024.017.015.018.017.015c.532.505 1.127.94 1.769 1.295.734.4 1.18.588 1.447.667v.004c.078.024.15.034.221.034.228-.016.444-.109.613-.262a2.53 2.53 0 00.517-.638v-.004c.128-.241.085-.469-.1-.623-.37-.323-.77-.61-1.195-.857-.285-.155-.574-.061-.69.095l-.25.315c-.129.156-.361.134-.361.134l-.007.004C7.093 8.527 6.63 6.772 6.63 6.772s-.022-.239.139-.36l.312-.252c.15-.122.254-.41.094-.695a7.498 7.498 0 00-.856-1.194.475.475 0 00-.28-.167zm2.486.495c-.221 0-.221.334.003.334A2.098 2.098 0 0110 5.572 1.94 1.94 0 0110.5 7a.168.168 0 00.167.165l.007.009a.169.169 0 00.167-.167c.015-.662-.191-1.218-.595-1.663C9.84 4.9 9.273 4.65 8.549 4.6h-.024zm.274.898c-.228-.006-.236.335-.01.341.55.029.816.306.851.877a.166.166 0 00.165.163h.007a.168.168 0 00.16-.178c-.039-.744-.445-1.164-1.166-1.202H8.8z"/></symbol><symbol viewBox="0 0 30 18" id="vk" xmlns="http://www.w3.org/2000/svg"><path d="M29.682 15.739a2.013 2.013 0 00-.099-.19c-.503-.91-1.466-2.026-2.887-3.35l-.03-.03-.015-.015-.015-.016h-.015c-.645-.616-1.054-1.03-1.225-1.243-.313-.404-.383-.813-.212-1.228.121-.313.575-.975 1.36-1.986.414-.535.741-.965.983-1.288 1.744-2.324 2.5-3.81 2.268-4.457l-.09-.15c-.06-.092-.217-.175-.469-.251-.252-.076-.574-.088-.967-.038l-4.354.03a.564.564 0 00-.302.008l-.197.046-.075.038-.06.045a.672.672 0 00-.167.16c-.06.075-.11.163-.15.264A24.787 24.787 0 0121.345 5.5a32.34 32.34 0 01-1.028 1.63c-.313.46-.575.798-.786 1.015a5.484 5.484 0 01-.575.523c-.171.132-.302.187-.392.167-.091-.02-.177-.04-.258-.06a1.008 1.008 0 01-.34-.372 1.667 1.667 0 01-.173-.591 6.497 6.497 0 01-.053-.614c-.005-.172-.003-.415.007-.728s.015-.525.015-.637c0-.384.008-.8.023-1.25.015-.45.027-.806.038-1.069.01-.263.015-.54.015-.834 0-.293-.018-.523-.053-.69a2.372 2.372 0 00-.158-.485.816.816 0 00-.31-.363 1.744 1.744 0 00-.507-.205C16.276.816 15.596.75 14.77.74c-1.875-.02-3.08.101-3.613.364a2.04 2.04 0 00-.574.455c-.182.222-.207.343-.076.363.604.091 1.033.308 1.285.652l.09.182c.071.131.142.364.212.697.07.334.116.703.136 1.107.05.738.05 1.37 0 1.895-.05.525-.098.934-.144 1.228-.045.293-.113.53-.204.712-.09.182-.15.293-.181.333a.262.262 0 01-.076.076 1.13 1.13 0 01-.408.076c-.141 0-.312-.07-.514-.212a3.632 3.632 0 01-.627-.584 7.807 7.807 0 01-.733-1.038c-.272-.445-.554-.97-.847-1.577l-.241-.44a37.841 37.841 0 01-.62-1.235 23.86 23.86 0 01-.695-1.569.999.999 0 00-.363-.485l-.076-.046a1.034 1.034 0 00-.242-.128 1.601 1.601 0 00-.347-.099l-4.142.03c-.423 0-.71.097-.862.289l-.06.09a.492.492 0 00-.046.243c0 .111.03.248.091.41A50.09 50.09 0 002.867 6.65c.71 1.324 1.327 2.39 1.851 3.199a37.76 37.76 0 001.603 2.289c.544.717.904 1.177 1.08 1.38.177.202.315.353.416.454l.378.364c.242.242.597.533 1.066.871.468.339.987.672 1.557 1.001a8.43 8.43 0 001.987.803 6.87 6.87 0 002.207.25h1.739c.352-.03.62-.141.8-.333l.061-.076c.04-.06.078-.154.113-.28a1.52 1.52 0 00.053-.417 5.01 5.01 0 01.098-1.175c.076-.348.162-.61.258-.788.096-.177.204-.326.324-.447a1.34 1.34 0 01.258-.22c.05-.025.09-.042.12-.053.242-.08.527-.002.855.235.327.238.634.531.922.88.287.348.632.74 1.035 1.174.403.435.756.758 1.058.97l.302.182c.202.122.464.233.787.334.322.101.604.126.846.076l3.87-.06c.382 0 .68-.064.891-.19.212-.127.338-.266.378-.417.04-.152.043-.324.008-.516a1.908 1.908 0 00-.106-.401z"/></symbol><symbol viewBox="0 0 30 30" id="whatsapp" xmlns="http://www.w3.org/2000/svg"><path fill-rule="evenodd" clip-rule="evenodd" d="M25.507 4.36A14.768 14.768 0 0014.992 0C6.798 0 .128 6.669.124 14.866c0 2.62.684 5.177 1.984 7.432L0 30l7.88-2.068a14.874 14.874 0 007.105 1.81h.007c8.192 0 14.862-6.669 14.866-14.866a14.78 14.78 0 00-4.35-10.516zM14.992 27.233h-.005a12.33 12.33 0 01-6.29-1.724l-.45-.268-4.677 1.227 1.247-4.56-.293-.466a12.334 12.334 0 01-1.89-6.576C2.639 8.053 8.182 2.51 14.998 2.51a12.276 12.276 0 018.735 3.623 12.286 12.286 0 013.615 8.742c-.003 6.813-5.546 12.357-12.355 12.357zm6.778-9.256c-.373-.187-2.198-1.084-2.539-1.208-.34-.125-.586-.186-.835.185-.248.371-.96 1.207-1.177 1.456-.217.248-.434.278-.805.092-.37-.185-1.568-.578-2.987-1.843-1.105-.985-1.85-2.2-2.067-2.573-.217-.373-.023-.573.164-.758.167-.166.371-.434.557-.651.185-.217.246-.371.37-.62.125-.248.063-.465-.031-.65-.093-.188-.836-2.016-1.146-2.76-.3-.72-.606-.624-.835-.634A15.26 15.26 0 009.729 8a1.368 1.368 0 00-.992.464c-.341.372-1.3 1.27-1.3 3.098 0 1.828 1.331 3.595 1.517 3.844.185.248 2.62 3.999 6.346 5.609.887.382 1.58.61 2.118.783.889.283 1.699.242 2.34.147.713-.106 2.197-.897 2.507-1.765.31-.868.31-1.611.217-1.767-.093-.156-.343-.25-.712-.436"/></symbol><symbol viewBox="0 0 30 21" id="youtube" xmlns="http://www.w3.org/2000/svg"><path d="M28.54 2.156C27.492.907 25.557.397 21.862.397H8.448c-3.78 0-5.747.543-6.791 1.873C.639 3.567.639 5.478.639 8.122v5.04c0 5.124 1.208 7.725 7.81 7.725h13.413c3.204 0 4.98-.45 6.129-1.552 1.178-1.13 1.68-2.977 1.68-6.172v-5.04c0-2.79-.079-4.712-1.131-5.967zm-9.262 9.182l-6.091 3.193a.934.934 0 01-.92-.03.94.94 0 01-.45-.803V7.334a.934.934 0 011.368-.833l6.09 3.171a.94.94 0 01.003 1.666z"/></symbol></svg>