<?xml version="1.0" encoding="utf-8"?><svg xmlns="http://www.w3.org/2000/svg" xmlns:xlink="http://www.w3.org/1999/xlink"><symbol viewBox="0 0 11 20" id="ar_next" xmlns="http://www.w3.org/2000/svg"><path d="M10.337 9.121L2.559.371C2.339.124 2.079 0 1.778 0c-.301 0-.562.124-.782.371-.22.247-.33.54-.33.879v17.5c0 .338.11.631.33.879.22.247.48.371.782.371.3 0 .561-.124.781-.371l7.778-8.75c.22-.247.33-.54.33-.88 0-.338-.11-.63-.33-.878z"/></symbol><symbol viewBox="0 0 11 20" id="ar_prev" xmlns="http://www.w3.org/2000/svg"><path d="M.663 9.121L8.441.371C8.66.124 8.92 0 9.222 0c.301 0 .562.124.781.371.22.247.33.54.33.879v17.5c0 .338-.11.631-.33.879-.22.247-.48.371-.78.371-.302 0-.562-.124-.782-.371l-7.778-8.75a1.28 1.28 0 01-.33-.88c0-.338.11-.63.33-.878z"/></symbol><symbol viewBox="0 0 22 24" id="basket" xmlns="http://www.w3.org/2000/svg"><g clip-path="url(#ca)"><path d="M10.363 18.443a2.046 2.046 0 00-2.045 2.042 2.046 2.046 0 004.09 0 2.046 2.046 0 00-2.045-2.042zm6.134 0a2.046 2.046 0 00-2.045 2.042 2.046 2.046 0 004.089 0 2.046 2.046 0 00-2.044-2.042zm3.978-8.199L7.413 6.891a.614.614 0 00-.75.73L8.67 16.4h-.786L5.482 5.895a.613.613 0 00-.474-.464l-4.27-.882A.614.614 0 00.489 5.75l3.885.802L6.797 17.15a.613.613 0 00.598.477h12.07a.615.615 0 00.607-.53l.858-6.175a.613.613 0 00-.455-.678zm-8.14 3.91a.613.613 0 01-1.227 0v-2.696a.613.613 0 011.227 0v2.696zm2.625 0a.613.613 0 01-1.227 0v-1.88a.613.613 0 011.227 0v1.88zm2.625 0a.613.613 0 01-1.227 0v-1.226a.613.613 0 011.227 0v1.226z"/></g><path fill-rule="evenodd" clip-rule="evenodd" d="M16.268 4.568a2.996 2.996 0 00-1.693-.523c-.627 0-1.21.193-1.693.523-.28-.843-.492-1.752-.492-2.383C12.39.98 13.37 0 14.575 0s2.185.98 2.185 2.185c0 .631-.212 1.54-.492 2.383zm-4.722 2.274l.024.006v-.011l-.024.005zm4.972 1.217c-1.333-.33-2.766-.681-4.129-1.013a2.185 2.185 0 114.129 1.013zm4.436 1.103c-.866-.217-2.155-.538-3.618-.9a2.995 2.995 0 00.243-1.425c.87.18 1.762.45 2.308.765.596.344.969.928 1.067 1.56zM9.869 6.439c-.36-.086-.706-.167-1.03-.243a2.19 2.19 0 01-.376-2.667 2.188 2.188 0 013.147-.7c.098.738.338 1.599.61 2.353a3.01 3.01 0 00-.449.774c-.628.113-1.305.278-1.902.483zm10.124.075a3.43 3.43 0 01-.217.114c-.696-.295-1.587-.526-2.397-.672a3.01 3.01 0 00-.449-.774c.262-.727.494-1.553.599-2.273.095-.067.189-.128.278-.18a2.188 2.188 0 012.986.8 2.188 2.188 0 01-.8 2.985z"/><defs><clipPath id="ca"><path transform="translate(0 3.064)" d="M0 0h20.936v20.936H0z"/></clipPath></defs></symbol><symbol viewBox="0 0 23 31" id="bookmarks" xmlns="http://www.w3.org/2000/svg"><path d="M21.79.5H.724a.624.624 0 00-.624.624v28.752a.624.624 0 001.057.45l10.1-9.726 10.1 9.725a.621.621 0 00.677.125.624.624 0 00.38-.574V1.124A.624.624 0 0021.789.5zm-.625 27.909l-9.476-9.125a.62.62 0 00-.865 0l-9.476 9.125V1.748h19.817v26.66z"/></symbol><symbol viewBox="0 0 31 31" id="cart" xmlns="http://www.w3.org/2000/svg"><path d="M9.771 24.5c-1.65 0-3 1.35-3 3s1.35 3 3 3 3-1.35 3-3-1.35-3-3-3zm-9-24v3h3l5.4 11.4-2.1 3.6c-.15.45-.3 1.05-.3 1.5 0 1.65 1.35 3 3 3h18v-3h-17.4c-.15 0-.3-.15-.3-.3v-.15l1.35-2.55h11.1c1.2 0 2.1-.6 2.55-1.5l5.4-9.75c.3-.3.3-.45.3-.75 0-.9-.6-1.5-1.5-1.5h-22.2l-1.35-3H.771zm24 24c-1.65 0-3 1.35-3 3s1.35 3 3 3 3-1.35 3-3-1.35-3-3-3z"/></symbol><symbol viewBox="0 0 20 20" id="cartplus" xmlns="http://www.w3.org/2000/svg"><path fill-rule="evenodd" clip-rule="evenodd" d="M5.997 15.998a2.01 2.01 0 00-1.994 2.007c0 1.092.903 1.995 1.994 1.995a2.01 2.01 0 002.008-1.995 2.013 2.013 0 00-2.008-2.007zM10.34 3.526h1.744v2.246h2.246v1.744h-2.246v2.246H10.34V7.516H8.08V5.772h2.259V3.526zM0 0v1.995h1.995l3.601 7.604-1.393 2.396c-.1.3-.2.703-.2 1.004a2 2 0 001.994 1.995h12.008v-1.995H6.399c-.1 0-.2-.1-.2-.201v-.1l.903-1.694h7.402c.79 0 1.393-.402 1.694-1.004l3.601-6.5C20 3.3 20 3.2 20 3c0-.602-.402-1.004-1.004-1.004H4.203L3.3 0H0zm15.998 15.998a2.003 2.003 0 00-1.995 2.007A2 2 0 0015.997 20a2.01 2.01 0 002.007-1.995 2.013 2.013 0 00-2.007-2.007z"/></symbol><symbol viewBox="0 0 344.96 344.96" id="check" xmlns="http://www.w3.org/2000/svg"><g data-name="Слой 2"><path class="gcls-1" d="M321.85 86.24l-40-23.11-23.1-40H212.5L172.48 0l-40 23.11H86.24l-23.11 40-40 23.1v46.21L0 172.48l23.11 40v46.21l40 23.11 23.11 40h46.21l40 23.1 40-23.11h46.21l23.11-40 40-23.11V212.5l23.11-40-23.11-40V86.24zM156.91 243.07a16.79 16.79 0 01-23.34 0l-50.45-50.44a16.19 16.19 0 010-22.89l13.35-13.35a16.19 16.19 0 0122.89 0l25.87 25.87 80.34-80.35a16.19 16.19 0 0122.89 0l13.35 13.35a16.19 16.19 0 010 22.89z" data-name="Capa 1"/></g></symbol><symbol viewBox="0 0 31 31" id="compare" xmlns="http://www.w3.org/2000/svg"><path d="M30.618 18.814l-5.054-8.425L30.1 9.13a.879.879 0 10-.47-1.694l-5.64 1.567-7.368 2.046v-9.67a.879.879 0 00-1.758 0v10.159l-7.819 2.171-5.658 1.572a.879.879 0 00.47 1.694l3.527-.98L.87 23.521a.88.88 0 00-.126.452A6.535 6.535 0 007.272 30.5a6.534 6.534 0 006.527-6.527.879.879 0 00-.125-.452l-5.055-8.425 13.711-3.809-4.515 7.527a.88.88 0 00-.125.452c0 3.6 2.928 6.527 6.527 6.527a6.484 6.484 0 004.615-1.912 6.484 6.484 0 001.912-4.615.877.877 0 00-.125-.452zM7.271 28.742a4.777 4.777 0 01-4.688-3.89h9.375a4.777 4.777 0 01-4.687 3.89zm4.096-5.648H3.175l4.096-6.828 4.096 6.828zM24.216 11.56l4.096 6.827H20.12l4.096-6.827zm0 12.475a4.777 4.777 0 01-4.687-3.89h9.375a4.777 4.777 0 01-4.688 3.89z"/></symbol><symbol viewBox="0 0 40 40" id="fastview" xmlns="http://www.w3.org/2000/svg"><path d="M37.82 20.612l.376-.612-.376-.613c-.062-.102-1.571-2.537-4.502-4.978-3.9-3.245-8.492-4.96-13.283-4.96-4.79 0-9.394 1.714-13.315 4.958-2.948 2.44-4.474 4.873-4.537 4.975L1.8 20l.383.618c.063.102 1.59 2.536 4.537 4.975 3.921 3.244 8.525 4.959 13.315 4.959 4.791 0 9.384-1.716 13.283-4.962 2.93-2.44 4.44-4.875 4.502-4.978zm-6.064 3.229c-3.507 2.898-7.45 4.367-11.72 4.367-4.273 0-8.229-1.47-11.76-4.37A22.114 22.114 0 014.606 20a22.115 22.115 0 013.67-3.838c3.531-2.9 7.487-4.37 11.76-4.37 4.27 0 8.212 1.47 11.72 4.367A21.827 21.827 0 0135.399 20a21.83 21.83 0 01-3.643 3.84z"/><path d="M20 12.958A7.05 7.05 0 0012.958 20 7.05 7.05 0 0020 27.042 7.05 7.05 0 0027.042 20 7.05 7.05 0 0020 12.958zm0 11.74A4.703 4.703 0 0115.302 20 4.703 4.703 0 0120 15.302 4.703 4.703 0 0124.698 20 4.703 4.703 0 0120 24.698zM2.344 2.344h4.892V0H0v7.148h2.344V2.344zM32.764 0v2.344h4.892v4.804H40V0h-7.236zM2.344 32.852H0V40h7.236v-2.344H2.344v-4.804zm35.312 4.804h-4.892V40H40v-7.148h-2.344v4.804z"/></symbol><symbol viewBox="0 0 24 24" id="fb" xmlns="http://www.w3.org/2000/svg"><path d="M13.397 20.997v-8.196h2.765l.411-3.209h-3.176V7.548c0-.926.258-1.56 1.587-1.56h1.684v-2.86A22.108 22.108 0 0014.201 3c-2.444 0-4.122 1.492-4.122 4.231v2.355H7.332v3.21h2.753v8.201h3.312z"/></symbol><symbol class="kicon kreplaced-svg" viewBox="0 0 22 30" id="geo" xmlns="http://www.w3.org/2000/svg"><path d="M10.547 0C4.728 0 0 4.729 0 10.547a10.4 10.4 0 001.582 5.537l8.25 13.5c.14.23.352.37.598.405a.875.875 0 00.896-.422L19.6 15.943a10.403 10.403 0 001.494-5.396C21.094 4.729 16.365 0 10.547 0zm0 15.82a5.266 5.266 0 01-5.274-5.273c0-2.9 2.373-5.274 5.274-5.274 2.9 0 5.273 2.373 5.273 5.274a5.255 5.255 0 01-5.273 5.273z"/></symbol><symbol viewBox="0 0 11 20" id="hero-next" xmlns="http://www.w3.org/2000/svg"><path d="M10.337 9.121L2.559.371C2.339.124 2.079 0 1.778 0c-.301 0-.562.124-.782.371-.22.247-.33.54-.33.879v17.5c0 .338.11.631.33.879.22.247.48.371.782.371.3 0 .561-.124.781-.371l7.778-8.75c.22-.247.33-.54.33-.88 0-.338-.11-.63-.33-.878z"/></symbol><symbol viewBox="0 0 24 24" id="instagram" xmlns="http://www.w3.org/2000/svg"><path d="M11.999 7.377a4.624 4.624 0 100 9.248 4.624 4.624 0 000-9.248zm0 7.627a3.004 3.004 0 110-6.008 3.004 3.004 0 010 6.008zm4.807-6.719a1.078 1.078 0 100-2.156 1.078 1.078 0 000 2.156z"/><path d="M20.533 6.11A4.605 4.605 0 0017.9 3.48a6.607 6.607 0 00-2.186-.42c-.963-.042-1.268-.054-3.71-.054s-2.755 0-3.71.054a6.554 6.554 0 00-2.184.42 4.6 4.6 0 00-2.633 2.63 6.585 6.585 0 00-.419 2.186c-.043.962-.056 1.267-.056 3.71 0 2.442 0 2.753.056 3.71.015.748.156 1.486.419 2.187a4.61 4.61 0 002.634 2.632 6.583 6.583 0 002.185.45c.963.042 1.268.055 3.71.055s2.755 0 3.71-.055a6.616 6.616 0 002.186-.42 4.613 4.613 0 002.633-2.632c.263-.7.404-1.438.419-2.186.043-.962.056-1.267.056-3.71s0-2.753-.056-3.71a6.583 6.583 0 00-.421-2.217zm-1.218 9.533a5.046 5.046 0 01-.311 1.688 2.987 2.987 0 01-1.712 1.71c-.535.2-1.1.305-1.67.312-.95.044-1.218.055-3.654.055-2.438 0-2.687 0-3.655-.055a4.961 4.961 0 01-1.67-.311 2.984 2.984 0 01-1.718-1.711 5.08 5.08 0 01-.311-1.67c-.043-.95-.053-1.217-.053-3.653 0-2.437 0-2.686.053-3.655a5.038 5.038 0 01.311-1.687c.305-.79.93-1.41 1.719-1.712a5.01 5.01 0 011.669-.311c.95-.043 1.218-.055 3.655-.055s2.687 0 3.654.055a4.96 4.96 0 011.67.31 2.99 2.99 0 011.712 1.713 5.06 5.06 0 01.311 1.669c.043.95.054 1.218.054 3.655 0 2.436 0 2.698-.043 3.654h-.011v-.001z"/></symbol><symbol viewBox="0 0 31 31" id="login" xmlns="http://www.w3.org/2000/svg"><path d="M24.284 25.313a1.172 1.172 0 100-2.344 1.172 1.172 0 000 2.344zM7.848 28.156H3.7c-.5 0-.802-.279-.937-.445a1.224 1.224 0 01-.248-1.027C3.73 20.84 8.889 16.57 14.844 16.431a8.003 8.003 0 00.6 0 12.84 12.84 0 014.233.816 1.172 1.172 0 10.824-2.194c-.194-.073-.39-.142-.586-.206a7.962 7.962 0 003.197-6.378C23.112 4.075 19.537.5 15.143.5S7.174 4.075 7.174 8.469a7.962 7.962 0 003.202 6.382 15.227 15.227 0 00-4.91 2.699 15.289 15.289 0 00-5.247 8.656 3.558 3.558 0 00.725 2.983A3.537 3.537 0 003.699 30.5h4.15a1.172 1.172 0 100-2.344zM9.518 8.47a5.631 5.631 0 015.625-5.625 5.631 5.631 0 015.625 5.625 5.632 5.632 0 01-5.351 5.618 15.6 15.6 0 00-.549 0 5.632 5.632 0 01-5.35-5.618z"/><path d="M29.245 20.692a3.158 3.158 0 00-2.88-1.852h-3.663c-1.319 0-2.469.777-2.932 1.98-.061.16-.137.363-.215.598h-7.673c-.317 0-.62.128-.84.355l-2.014 2.074a1.172 1.172 0 00.005 1.638l2.051 2.086c.22.224.522.35.836.35h3.809a1.172 1.172 0 100-2.343H12.41l-.904-.92.87-.896h8.057c.54 0 1.01-.37 1.138-.893a9.69 9.69 0 01.386-1.207c.113-.295.398-.478.747-.478h3.656a.8.8 0 01.745.464c.314.704.69 1.794.693 2.988.003 1.203-.373 2.317-.688 3.04a.8.8 0 01-.736.48h-3.7a.834.834 0 01-.755-.519 7.799 7.799 0 01-.363-1.16 1.172 1.172 0 00-2.28.546c.136.568.292 1.061.476 1.508a3.161 3.161 0 002.92 1.969h3.706c1.25 0 2.381-.74 2.881-1.887.405-.929.887-2.373.883-3.983-.003-1.605-.49-3.027-.896-3.938z"/></symbol><symbol viewBox="0 0 21 31" id="oneclick" xmlns="http://www.w3.org/2000/svg"><path d="M18.689 14.02h-.04c-.775 0-1.427.71-1.427 1.622v1.264c0 .252-.19.456-.423.456-.233 0-.423-.204-.423-.456v-2.335c0-.912-.614-1.654-1.388-1.654-.778 0-1.392.742-1.392 1.654v2.475c0 .252-.19.456-.423.456-.234 0-.423-.204-.423-.456v-3.154c0-.912-.639-1.632-1.413-1.632h-.043c-.754 0-1.385.683-1.385 1.563v3.552c0 .252-.19.456-.423.456-.234 0-.423-.204-.423-.456v-3.449l-.002-.034.002-.084V5.745c0-.912-.639-1.654-1.412-1.654-.774 0-1.412.742-1.413 1.653l-.008 13.37a.456.456 0 01-.281.43.404.404 0 01-.47-.14L4 17.461a2.21 2.21 0 00-1.59-.907 2.112 2.112 0 00-1.657.64l-.016.017-.29.261L5.578 28.11c.81 1.679 2.342 2.73 3.997 2.73h5.932c2.525 0 4.58-2.395 4.583-5.33l.004-3.658c.003-2.51.004-3.433-.002-6.198-.002-.91-.631-1.633-1.403-1.633z"/><path d="M3.802 5.905c.233 0 .423-.204.423-.456-.005-1.318.644-2.539 1.701-3.2a3.198 3.198 0 013.42 0c1.057.661 1.706 1.882 1.701 3.2 0 .252.19.456.423.456.234 0 .423-.204.423-.456.006-1.645-.804-3.168-2.124-3.992a3.99 3.99 0 00-4.266 0c-1.32.824-2.13 2.347-2.125 3.992 0 .252.19.456.424.456z"/></symbol><symbol class="picon preplaced-svg" viewBox="0 0 31 30" id="phone" xmlns="http://www.w3.org/2000/svg"><path d="M29.215 23.142l-6.073-4.05a1.772 1.772 0 00-2.373.386l-1.768 2.274a.756.756 0 01-.97.204l-.336-.185c-1.116-.608-2.503-1.365-5.3-4.162-2.796-2.797-3.554-4.186-4.162-5.299l-.184-.337a.757.757 0 01.2-.972l2.272-1.769c.727-.57.895-1.602.386-2.373L6.857.787A1.763 1.763 0 004.482.252l-2.54 1.525a3.582 3.582 0 00-1.633 2.12C-.606 7.23.082 12.978 8.552 21.45c6.738 6.737 11.753 8.549 15.2 8.549.794.003 1.585-.1 2.35-.307a3.578 3.578 0 002.12-1.633l1.527-2.538a1.763 1.763 0 00-.534-2.378zM17 5.002a8.508 8.508 0 018.5 8.498.5.5 0 101 0A9.509 9.509 0 0017 4.002a.5.5 0 100 1z"/><path d="M17 8.001a5.506 5.506 0 015.5 5.5.5.5 0 001 0A6.507 6.507 0 0017 7a.5.5 0 100 1z"/><path d="M17 11a2.503 2.503 0 012.5 2.5.5.5 0 101 0A3.504 3.504 0 0017 10a.5.5 0 100 1z"/></symbol><symbol viewBox="0 0 19 20" id="search" xmlns="http://www.w3.org/2000/svg"><path d="M18.711 18.217l-4.684-4.95a8.128 8.128 0 001.864-5.192C15.891 3.623 12.327 0 7.946 0S0 3.623 0 8.075c0 4.453 3.565 8.075 7.946 8.075a7.774 7.774 0 004.552-1.461l4.72 4.988a1.02 1.02 0 001.464.03 1.069 1.069 0 00.03-1.49zM7.946 2.107c3.238 0 5.873 2.677 5.873 5.968s-2.635 5.969-5.873 5.969c-3.239 0-5.873-2.678-5.873-5.969 0-3.291 2.634-5.968 5.873-5.968z"/></symbol><symbol viewBox="0 0 15 16" id="star" xmlns="http://www.w3.org/2000/svg"><path d="M7.911.827l1.856 4.684 4.75.435c.33.03.464.469.214.7l-3.604 3.328 1.08 4.953c.075.344-.274.614-.558.432l-4.082-2.626-4.083 2.626c-.284.182-.633-.09-.558-.432l1.08-4.953L.4 6.644c-.25-.23-.117-.669.214-.699l4.75-.435L7.222.827a.366.366 0 01.69 0z"/></symbol><symbol viewBox="0 0 16 16" id="telegram" xmlns="http://www.w3.org/2000/svg"><path d="M14.629 3.698l-2.012 9.618c-.152.679-.548.848-1.11.528l-3.066-2.29-1.48 1.442c-.163.166-.3.305-.616.305l.22-3.165 5.683-5.204c.247-.223-.054-.347-.384-.123L4.839 9.29l-3.024-.959c-.658-.208-.67-.667.137-.986L13.78 2.727c.548-.208 1.027.124.849.971z"/></symbol><symbol viewBox="0 0 16 16" id="viber" xmlns="http://www.w3.org/2000/svg"><path d="M8 1.335c-1.071.013-3.374.19-4.662 1.37-.958.948-1.292 2.35-1.331 4.084-.033 1.728-.072 4.973 3.058 5.856v1.346s-.02.538.337.648c.438.14.688-.275 1.105-.72l.778-.879c2.142.178 3.782-.232 3.97-.293.435-.139 2.883-.451 3.283-3.696.41-3.351-.2-5.463-1.301-6.418h-.007c-.332-.306-1.668-1.279-4.652-1.29 0 0-.222-.014-.578-.008zm.037.942a7.02 7.02 0 01.488.011c2.527.007 3.732.767 4.017 1.023.927.794 1.405 2.697 1.055 5.495-.332 2.713-2.317 2.885-2.685 3.002-.156.05-1.6.406-3.42.289 0 0-1.356 1.634-1.78 2.055-.067.074-.146.095-.196.085-.071-.018-.093-.107-.089-.229l.013-2.233c-2.655-.733-2.498-3.5-2.47-4.946.033-1.446.304-2.628 1.113-3.43 1.088-.982 3.043-1.115 3.953-1.122zm.2 1.446a.166.166 0 100 .332 3.136 3.136 0 012.242.883c.606.588.9 1.378.912 2.411 0 .092.074.167.167.167V7.51a.167.167 0 00.168-.165 3.588 3.588 0 00-1.009-2.646c-.66-.645-1.496-.977-2.48-.977zm-2.198.382a.523.523 0 00-.342.067H5.69a2.61 2.61 0 00-.637.523 1.003 1.003 0 00-.256.525.71.71 0 00.026.302l.01.006c.172.504.396.988.67 1.444a8.48 8.48 0 001.29 1.762l.015.022.024.017.015.018.017.015c.532.505 1.127.94 1.769 1.295.734.4 1.18.588 1.447.667v.004c.078.024.15.034.221.034.228-.016.444-.109.613-.262a2.53 2.53 0 00.517-.638v-.004c.128-.241.085-.469-.1-.623-.37-.323-.77-.61-1.195-.857-.285-.155-.574-.061-.69.095l-.25.315c-.129.156-.361.134-.361.134l-.007.004C7.093 8.527 6.63 6.772 6.63 6.772s-.022-.239.139-.36l.312-.252c.15-.122.254-.41.094-.695a7.498 7.498 0 00-.856-1.194.475.475 0 00-.28-.167zm2.486.495c-.221 0-.221.334.003.334A2.098 2.098 0 0110 5.572 1.94 1.94 0 0110.5 7a.168.168 0 00.167.165l.007.009a.169.169 0 00.167-.167c.015-.662-.191-1.218-.595-1.663C9.84 4.9 9.273 4.65 8.549 4.6h-.024zm.274.898c-.228-.006-.236.335-.01.341.55.029.816.306.851.877a.166.166 0 00.165.163h.007a.168.168 0 00.16-.178c-.039-.744-.445-1.164-1.166-1.202H8.8z"/></symbol><symbol viewBox="0 0 24 24" id="vk" xmlns="http://www.w3.org/2000/svg"><path d="M21.579 6.855c.14-.465 0-.806-.662-.806h-2.193c-.558 0-.813.295-.953.619 0 0-1.115 2.719-2.695 4.482-.51.513-.743.675-1.021.675-.139 0-.341-.162-.341-.627V6.855c0-.558-.161-.806-.626-.806H9.642c-.348 0-.558.258-.558.504 0 .528.79.65.871 2.138v3.228c0 .707-.127.836-.407.836-.743 0-2.551-2.73-3.624-5.853-.209-.607-.42-.852-.98-.852H2.752c-.627 0-.752.295-.752.619 0 .582.743 3.462 3.461 7.27 1.812 2.602 4.363 4.012 6.687 4.012 1.393 0 1.565-.313 1.565-.853v-1.966c0-.626.133-.752.574-.752.324 0 .882.164 2.183 1.417 1.486 1.486 1.732 2.153 2.567 2.153h2.192c.626 0 .939-.313.759-.931-.197-.615-.907-1.51-1.849-2.57-.512-.603-1.277-1.253-1.51-1.578-.325-.42-.231-.604 0-.976.001 0 2.672-3.761 2.95-5.04z"/></symbol><symbol viewBox="0 0 16 16" id="whatsapp" xmlns="http://www.w3.org/2000/svg"><path fill-rule="evenodd" clip-rule="evenodd" d="M12.269 3.755A5.947 5.947 0 008.035 2 5.994 5.994 0 002.05 7.985a5.98 5.98 0 00.799 2.992L2 14.077l3.173-.832c.877.477 1.86.728 2.86.728h.002a5.993 5.993 0 005.533-8.276 5.953 5.953 0 00-1.3-1.942zm-4.234 9.208h-.002c-.89 0-1.765-.24-2.532-.694l-.181-.108-1.883.494.502-1.835-.118-.188a4.965 4.965 0 01-.76-2.647 4.982 4.982 0 016.88-4.597c.604.25 1.152.618 1.613 1.081a4.946 4.946 0 011.455 3.52 4.982 4.982 0 01-4.974 4.974zm2.729-3.726c-.15-.075-.885-.436-1.022-.486-.137-.05-.236-.075-.336.074-.1.15-.387.486-.474.586-.087.1-.175.112-.324.038-.15-.075-.631-.233-1.203-.742a4.505 4.505 0 01-.832-1.036c-.087-.15-.009-.231.066-.306.068-.066.15-.174.224-.262.075-.087.1-.149.15-.249.05-.1.025-.187-.013-.262-.037-.075-.337-.811-.461-1.11-.121-.29-.244-.252-.336-.256a6.418 6.418 0 00-.286-.005.55.55 0 00-.4.186c-.137.15-.523.512-.523 1.248s.536 1.447.61 1.547c.075.1 1.055 1.61 2.555 2.258.358.154.636.246.853.315.358.114.684.098.942.06.287-.043.885-.362 1.01-.711.124-.35.124-.649.087-.711-.038-.063-.138-.101-.287-.176z"/></symbol></svg>