<svg width="24" height="24" viewBox="0 0 24 24" fill="none" xmlns="http://www.w3.org/2000/svg">
<g clip-path="url(#clip0_105_12)">
<path fill-rule="evenodd" clip-rule="evenodd" d="M6.55945 15.5256L6.55465 8.94716L11.8826 11.4912L11.8802 18.108L6.55945 15.5256ZM13.109 18.1152L13.1162 11.5296C13.2074 11.4576 15.2474 10.4712 15.3794 10.4376C15.3722 10.9968 15.2906 13.272 15.4706 13.5672C15.689 13.9176 16.5842 14.0904 16.6034 13.0944L16.6106 9.83756L18.4658 8.91836V15.4392C18.4658 15.5736 18.3362 15.6024 18.2042 15.6624L15.8354 16.8096L13.109 18.1152ZM7.36585 7.91276L8.28265 7.47356C9.64345 6.82556 9.40825 6.80396 10.1546 7.19276L14.6618 9.41516L12.7946 10.296C12.5522 10.4232 12.5618 10.4808 12.3314 10.3656L7.36585 7.91276ZM10.9538 6.19676L11.8058 5.78156C12.7106 5.33996 12.3794 5.38556 13.4738 5.91596L17.6402 7.92956L16.805 8.34956C16.4066 8.55116 16.1834 8.76476 15.9314 8.63516L10.9538 6.19676ZM12.3194 4.16396L9.79225 5.37596L6.01225 7.20956C5.37625 7.57916 5.31385 7.45436 5.30905 8.35676C5.30425 9.61676 5.31865 10.8792 5.31145 12.1368C5.30425 13.3464 5.25865 14.6808 5.30905 15.876C5.33305 16.4328 5.71465 16.5192 6.25705 16.7784C8.15065 17.6976 10.0922 18.5928 11.9642 19.5504C12.1994 19.6704 12.3866 19.8024 12.6914 19.7016C12.9986 19.6032 14.7818 18.6936 15.2066 18.48C16.4186 17.8728 17.7506 17.2128 18.989 16.6608C19.613 16.3824 19.7258 16.3416 19.7162 15.5256C19.685 13.0656 19.7666 10.4328 19.721 8.00876C19.709 7.39196 19.2314 7.34636 18.7586 7.10636L14.9594 5.25596C14.5226 5.03996 12.6914 4.05116 12.3194 4.16396Z" fill="white"/>
<path fill-rule="evenodd" clip-rule="evenodd" d="M21.3961 3.7872C21.1129 3.6288 20.9737 3.3432 20.7577 3.1512C20.0545 2.5128 19.6465 2.0976 18.7369 1.5216C12.4441 -2.4672 4.14491 0.129594 1.22411 6.9312C-0.39109 10.6968 0.052911 15.0816 2.35211 18.4296C2.97131 19.3344 3.80171 20.3208 4.67051 20.9736C5.11451 21.3072 5.55851 21.6696 6.10331 21.9744C7.21451 22.5984 8.20571 23.028 9.55451 23.3448C12.1417 23.9544 15.3289 23.6016 17.6569 22.3656C18.8881 21.7128 19.5265 21.2472 20.5129 20.3568C21.7177 19.272 22.8529 17.5632 23.4505 16.0416C23.5441 15.7968 23.7481 15.384 23.7049 15.1032C23.6569 14.7984 23.3977 14.5608 23.0641 14.5488C22.6585 14.5368 22.5169 14.7552 22.3945 15.0696C21.9841 16.1352 21.8689 16.4928 21.1993 17.52C20.0761 19.2432 18.1945 20.9304 15.7345 21.7488C13.0297 22.6512 10.0873 22.4832 7.63211 21.2736C6.49451 20.712 5.67371 20.0928 4.78571 19.2504C-0.00708866 14.5056 0.703311 6.636 6.24491 2.8296C8.21051 1.4784 10.9489 0.655195 13.9441 1.1016C15.4081 1.3176 17.2177 2.016 18.3001 2.8272C18.6889 3.12 20.0161 4.1472 20.1865 4.5216C19.9393 4.4568 18.2449 4.1736 18.0313 4.1952C17.3617 4.2648 17.1601 5.3232 18.0481 5.5104L21.2569 6.036C21.6577 6.0984 21.9673 6.228 22.2457 5.9304C22.5289 5.628 22.6297 4.4304 22.7113 3.9216L23.0497 1.7976C23.0329 1.0248 21.9721 0.856795 21.7465 1.644C21.5977 2.1576 21.4633 3.2352 21.3961 3.7872Z" fill="white"/>
</g>
<defs>
<clipPath id="clip0_105_12">
<rect width="24" height="24" fill="white"/>
</clipPath>
</defs>
</svg>
