<svg xmlns="http://www.w3.org/2000/svg" width="18" height="20" viewBox="0 0 18 20" fill="none" class="icon replaced-svg">
<path d="M17.3382 2.87829H13.177V2.19984C13.177 0.986842 12.1902 0 10.9772 0H7.02159C5.80859 0 4.82175 0.986842 4.82175 2.19984V2.87829H0.660568C0.352179 2.87829 0.105469 3.125 0.105469 3.43339C0.105469 3.74178 0.352179 3.98849 0.660568 3.98849H1.66386V17.0312C1.66386 18.6678 2.99609 20 4.63261 20H13.3662C15.0027 20 16.3349 18.6678 16.3349 17.0312V3.98849H17.3382C17.6466 3.98849 17.8933 3.74178 17.8933 3.43339C17.8933 3.125 17.6466 2.87829 17.3382 2.87829ZM5.93195 2.19984C5.93195 1.59951 6.42126 1.1102 7.02159 1.1102H10.9772C11.5775 1.1102 12.0668 1.59951 12.0668 2.19984V2.87829H5.93195V2.19984ZM15.2247 17.0312C15.2247 18.0551 14.39 18.8898 13.3662 18.8898H4.63261C3.60876 18.8898 2.77405 18.0551 2.77405 17.0312V3.98849H15.2288V17.0312H15.2247Z" fill="#444444"></path>
<path d="M9.00041 16.8997C9.30879 16.8997 9.5555 16.653 9.5555 16.3446V6.53374C9.5555 6.22535 9.30879 5.97864 9.00041 5.97864C8.69202 5.97864 8.44531 6.22535 8.44531 6.53374V16.3405C8.44531 16.6489 8.69202 16.8997 9.00041 16.8997Z" fill="#444444"></path>
<path d="M5.37736 16.287C5.68575 16.287 5.93246 16.0403 5.93246 15.7319V7.14226C5.93246 6.83387 5.68575 6.58716 5.37736 6.58716C5.06898 6.58716 4.82227 6.83387 4.82227 7.14226V15.7319C4.82227 16.0403 5.07309 16.287 5.37736 16.287Z" fill="#444444"></path>
<path d="M12.6225 16.287C12.9309 16.287 13.1776 16.0403 13.1776 15.7319V7.14226C13.1776 6.83387 12.9309 6.58716 12.6225 6.58716C12.3141 6.58716 12.0674 6.83387 12.0674 7.14226V15.7319C12.0674 16.0403 12.3141 16.287 12.6225 16.287Z" fill="#444444"></path>
</svg>