<svg width="32" height="32" viewBox="0 0 32 32" fill="none" xmlns="http://www.w3.org/2000/svg">
<path d="M30.2622 13.6952C30.213 13.6316 30.1657 13.5701 30.1205 13.5105C29.5564 12.7672 29.1004 11.9307 28.6981 11.1926C28.3036 10.4688 27.931 9.78521 27.5242 9.31249C26.6166 8.25783 25.7627 7.74521 24.9135 7.74521H20.7204C20.7164 7.74528 20.3158 7.75015 19.8337 7.75015H19.15C18.6613 7.75015 18.2351 8.08196 18.1135 8.55708L18.1079 8.57925V17.8375L18.1089 17.8566C18.1094 17.8622 18.1198 17.9948 18.0152 18.1089C17.8999 18.2349 17.6785 18.3015 17.3749 18.3015H1.04246C0.467634 18.3014 0 18.7413 0 19.2821V22.6531C0 23.1939 0.467634 23.6338 1.04246 23.6338H4.62947C4.8174 25.7811 6.62449 27.4715 8.82016 27.4715C11.0158 27.4715 12.8231 25.7811 13.0109 23.6338H19.0142C19.2022 25.7811 21.0092 27.4715 23.2049 27.4715C25.4006 27.4715 27.2078 25.7811 27.3957 23.6338H30.1241C31.1584 23.6338 31.9999 22.7924 31.9999 21.7581V18.5395C32 15.9491 30.9542 14.5927 30.2622 13.6952ZM24.7739 23.2643C24.7739 24.1291 24.0701 24.8327 23.2049 24.8327C22.3401 24.8327 21.6365 24.1291 21.6365 23.2643C21.6365 22.3994 22.3401 21.6958 23.2049 21.6958C24.0701 21.6958 24.7739 22.3994 24.7739 23.2643ZM28.3815 15.0982C28.3487 15.1523 28.2551 15.1756 28.113 15.1665L20.9043 15.1662V9.28611H24.0209C24.8594 9.28611 25.4536 9.65114 26.0719 10.546C26.4831 11.1412 27.5718 13.0151 27.6273 13.1108C27.6659 13.1854 27.7057 13.2613 27.7458 13.3379C28.0599 13.9382 28.5346 14.8452 28.3815 15.0982ZM8.82016 21.6958C9.6853 21.6958 10.3891 22.3994 10.3891 23.2643C10.3891 24.1291 9.6853 24.8327 8.82016 24.8327C7.95531 24.8327 7.25171 24.1291 7.25171 23.2643C7.25171 22.3994 7.95531 21.6958 8.82016 21.6958Z" fill="#FF3300"/>
<path d="M2.19744 16.81H7.13904C7.63996 16.81 8.04742 16.4026 8.04742 15.9017V12.2681C8.04742 11.7672 7.63996 11.3597 7.13904 11.3597H2.19744C1.69653 11.3597 1.28906 11.7672 1.28906 12.2681V15.9017C1.28906 16.4026 1.6966 16.81 2.19744 16.81Z" fill="#FF3300"/>
<path d="M10.4089 16.81H15.3505C15.8514 16.81 16.2588 16.4026 16.2588 15.9017V12.2681C16.2588 11.7672 15.8514 11.3597 15.3505 11.3597H10.4089C9.90795 11.3597 9.50049 11.7672 9.50049 12.2681V15.9017C9.50049 16.4026 9.90802 16.81 10.4089 16.81Z" fill="#FF3300"/>
<path d="M2.19744 9.979H7.13904C7.63996 9.979 8.04742 9.57154 8.04742 9.07062V5.4371C8.04742 4.93618 7.63996 4.52872 7.13904 4.52872H2.19744C1.69653 4.52872 1.28906 4.93618 1.28906 5.4371V9.07062C1.28906 9.57154 1.6966 9.979 2.19744 9.979Z" fill="#FF3300"/>
<path d="M10.4089 9.979H15.3505C15.8514 9.979 16.2588 9.57154 16.2588 9.07062V5.4371C16.2588 4.93618 15.8514 4.52872 15.3505 4.52872H10.4089C9.90795 4.52872 9.50049 4.93618 9.50049 5.4371V9.07062C9.50049 9.57154 9.90802 9.979 10.4089 9.979Z" fill="#FF3300"/>
</svg>
