<svg width="32" height="32" viewBox="0 0 32 32" fill="none" xmlns="http://www.w3.org/2000/svg">
<path d="M15.638 4C12.2094 4 9.40674 6.80271 9.40674 10.2313C9.40674 13.6599 12.2094 16.4626 15.638 16.4626C19.0666 16.4626 21.8693 13.6599 21.8693 10.2313C21.8693 6.80271 19.0666 4 15.638 4Z" fill="#FF3300"/>
<path d="M26.332 21.4421C26.1687 21.034 25.9511 20.653 25.7062 20.2993C24.4545 18.4489 22.5225 17.2244 20.3456 16.9251C20.0736 16.8979 19.7742 16.9523 19.5565 17.1156C18.4137 17.9591 17.0532 18.3945 15.6382 18.3945C14.2232 18.3945 12.8626 17.9591 11.7198 17.1156C11.5021 16.9523 11.2027 16.8707 10.9307 16.9251C8.75378 17.2244 6.79462 18.4489 5.57014 20.2993C5.32524 20.653 5.10753 21.0612 4.9443 21.4421C4.86269 21.6054 4.88988 21.7959 4.97149 21.9592C5.1892 22.3401 5.46128 22.7211 5.70618 23.0476C6.08712 23.5646 6.49529 24.0272 6.9579 24.4626C7.33883 24.8435 7.7742 25.1972 8.20962 25.551C10.3592 27.1565 12.9443 27.9999 15.611 27.9999C18.2776 27.9999 20.8627 27.1564 23.0123 25.551C23.4477 25.2245 23.883 24.8435 24.264 24.4626C24.6994 24.0272 25.1348 23.5646 25.5158 23.0476C25.7878 22.6939 26.0328 22.3401 26.2504 21.9592C26.3864 21.7959 26.4136 21.6054 26.332 21.4421Z" fill="#FF3300"/>
</svg>
