<svg width="32" height="32" viewBox="0 0 32 32" fill="none" xmlns="http://www.w3.org/2000/svg">
<g clip-path="url(#clip0)">
<path d="M28.0909 22.9093H23.6363C20.8293 22.9093 18.5455 20.6255 18.5455 17.8185C18.5455 15.0114 20.8293 12.7276 23.6363 12.7276H28.0909C28.4426 12.7276 28.7273 12.4429 28.7273 12.0912V10.1821C28.7273 8.84766 27.6922 7.7624 26.3844 7.65716L22.7297 1.27365C22.391 0.683268 21.8441 0.2613 21.1897 0.0860813C20.5384 -0.087944 19.8574 0.0034536 19.2744 0.342734L6.74587 7.63664H4.54547C3.14163 7.63664 2 8.77822 2 10.1821V25.4548C2 26.8586 3.14157 28.0003 4.54547 28.0003H26.1818C27.5856 28.0003 28.7273 26.8587 28.7273 25.4548V23.5457C28.7273 23.194 28.4426 22.9093 28.0909 22.9093ZM23.5189 5.21473L24.9055 7.63664H19.359L23.5189 5.21473ZM9.27541 7.63664L19.9151 1.44267C20.2029 1.27425 20.539 1.22951 20.8604 1.31529C21.1854 1.40228 21.4563 1.61234 21.6248 1.90628L21.6261 1.9086L11.7877 7.63664H9.27541Z" fill="#FF3300"/>
<path d="M28.0911 14.0004H23.6365C21.531 14.0004 19.8184 15.7131 19.8184 17.8185C19.8184 19.924 21.531 21.6367 23.6365 21.6367H28.0911C29.1438 21.6367 30.0002 20.7804 30.0002 19.7276V15.9095C30.0002 14.8567 29.1438 14.0004 28.0911 14.0004ZM23.6365 19.0913C22.9349 19.0913 22.3638 18.5201 22.3638 17.8185C22.3638 17.117 22.9349 16.5458 23.6365 16.5458C24.3381 16.5458 24.9092 17.117 24.9092 17.8185C24.9093 18.5201 24.3382 19.0913 23.6365 19.0913Z" fill="#FF3300"/>
</g>
<defs>
<clipPath id="clip0">
<rect width="32" height="32" fill="white"/>
</clipPath>
</defs>
</svg>
